<svg id="Capa_1" enable-background="new 0 0 511.979 511.979" height="512" viewBox="0 0 511.979 511.979" width="512" xmlns="http://www.w3.org/2000/svg"><g><g fill="#f9f8f9"><path d="m200.03 431.311-42.31 42.29c-13.327 2.344-29.125 6.705-42.892-.56-17.884-9.437-32.34-31.617-33.498-32.6.62-.73 1.28-1.43 1.97-2.12l40.27-40.24s24.264 2.258 42.329 12.002c14.051 7.58 20.402 23.639 34.131 21.228z"/><path d="m278.4 352.991-42.32 42.29c-13.765 2.421-40.167 6.324-54.243-1.284-18.012-9.736-22.217-31.946-22.217-31.946l42.31-42.29s24.824 2.736 43.388 12.565c13.812 7.313 19.694 23.016 33.082 20.665z"/><path d="m356.76 274.671-42.31 42.29c-12.748 2.242-37.759 7.18-51.09.379-19.484-9.941-25.38-33.599-25.38-33.599l42.32-42.3s23.382 1.5 40.64 11.078c14.416 8.001 21.537 24.66 35.82 22.152z"/><path d="m439.78 143.881c0 .1-.01.19-.01.29-1.36 27.17-11.19 53.99-29.47 76.14-17.311 4.92-43.887 15.367-58.352 13.744-25.786-2.894-34.863-22.367-39.437-24.814l33.9-33.87c5.19.546 21.566-8.739 45.889-17.199 13.547-4.712 29.561-2.271 47.48-14.291z"/><path d="m314.32 85.191c-12.37-1.06-25.05 2.23-35.52 9.85-1.84-12.298-23.323-38.147-23.323-38.147s-4.067-25.046-9.337-32.863c19.2-10.75 40.57-16.25 61.99-16.51 2.428 6.377 19.57 38.894 19.57 38.894s-8.934 26.433-13.38 38.776z"/></g><path d="m157.72 473.601-19.56 19.55c-15.15 15.13-39.71 15.13-54.86 0-14.46-14.45-15.12-37.48-1.97-52.71 2.05 1.74 45.75 38.55 76.39 33.16z" fill="#dc4955"/><path d="m236.08 395.281-36.05 36.03c-31.38 5.51-76.46-33.23-76.46-33.23l36.05-36.03s45.08 38.75 76.46 33.23z" fill="#dc4955"/><path d="m314.45 316.961-36.05 36.03c-31.38 5.51-76.47-33.23-76.47-33.23l36.05-36.02s45.09 38.74 76.47 33.22z" fill="#dc4955"/><path d="m422.89 73.081s-10.904 25.454-26.86 39.674c-10.226 9.113-22.526 7.719-35.36 11.426-2.28-8.72-6.84-16.97-13.67-23.8-1.56-1.56-3.19-3-4.89-4.32 8.361-7.642 5.243-20.88 10.467-33.906 7.636-19.038 21.733-37.624 21.733-37.624 9.87 5.61 19.15 12.63 27.55 21.03s15.41 17.67 21.03 27.52z" fill="#f9f8f9"/><path d="m278.8 95.041c-2.18 1.59-4.27 3.37-6.24 5.34l-14.5 14.49c-15.15 15.14-39.71 15.14-54.86 0s-15.15-39.69 0-54.82l14.5-14.49c8.54-8.54 17.98-15.64 28.02-21.3.14-.08.28-.16.42-.23 10.22 15.16 28.86 45.62 32.66 71.01z" fill="#dc4955"/><path d="m374.31 24.531s-11.62 52.72-32.2 71.53c-8.21-6.39-17.9-10.02-27.79-10.87 10.54-29.26-1.99-66.64-6.19-77.67h.11c22.82-.28 45.69 5.39 66.07 17.01z" fill="#dc4955"/><path d="m439.78 143.881c-50.09 33.6-85.29 32.34-93.37 31.49l.59-.59c13.7-13.69 18.26-33.1 13.67-50.6 32.86-9.49 62.22-51.1 62.22-51.1 12.44 21.78 18.07 46.42 16.89 70.8z" fill="#dc4955"/><path d="m410.3 220.311c-2.63 3.2-5.45 6.3-8.44 9.29l-45.09 45.07h-.01c-31.38 5.51-76.46-33.23-76.46-33.23l32.21-32.2c7.14 3.82 49.62 24.76 97.79 11.07z" fill="#dc4955"/><path d="m139.82 410.271-42.2 42.37c-9.22-6.24-15.54-11.56-16.29-12.2.62-.73 1.28-1.43 1.97-2.12l40.27-40.24s6.48 5.57 16.25 12.19z" fill="#efedef"/><path d="m218.09 331.891-2.02 2.02-40.29 40.27c-9.71-6.59-16.16-12.13-16.16-12.13l42.31-42.29s6.45 5.54 16.16 12.13z" fill="#efedef"/><path d="m296.46 253.571-42.32 42.3c-9.72-6.59-16.16-12.13-16.16-12.13l42.32-42.3s6.44 5.54 16.16 12.13z" fill="#efedef"/><path d="m372.86 173.521c-3.17 5.58-7.09 10.77-11.73 15.41l-28.67 28.64c-10.28-3.39-17.39-6.96-19.95-8.33l33.9-33.87c3.65.38 12.84.85 26.45-1.85z" fill="#efedef"/><path d="m318.24 65.481c-.43 6.5-1.58 12.99-3.71 19.12-.07.2-.14.39-.21.59-12.37-1.06-25.05 2.23-35.52 9.85-.03-.2-.06-.39-.1-.59-1-6.36-2.92-13.02-5.39-19.68 11.03-6.41 23.51-9.77 36.48-9.77 2.07 0 4.17.09 6.24.26.74.06 1.48.14 2.21.22z" fill="#efedef"/><path d="m73.52 476.711c-3.62-12.3-1.02-26.04 7.81-36.27.75.64 7.07 5.96 16.29 12.2l-2.21 2.22z" fill="#d82f3c"/><path d="m175.78 374.181-2.02 2.02-5.47 5.49-20.99 21.07-7.48 7.51c-9.77-6.62-16.25-12.19-16.25-12.19l36.05-36.03s6.45 5.54 16.16 12.13z" fill="#d82f3c"/><path d="m254.14 295.871-7 7-21.74 21.71-7.31 7.31c-9.71-6.59-16.16-12.13-16.16-12.13l36.05-36.02s6.44 5.54 16.16 12.13z" fill="#d82f3c"/><path d="m379.02 115.691c-5.87 3.67-12.05 6.67-18.35 8.49-2.28-8.72-6.84-16.97-13.67-23.8-1.56-1.56-3.19-3-4.89-4.32.2-.18.39-.36.58-.55 4.2-4 8.02-9.39 11.43-15.44.08.06.17.13.25.19 2.35 1.82 4.62 3.83 6.77 5.98 8.26 8.26 14.41 18.38 17.88 29.45z" fill="#efedef"/><path d="m278.8 95.041c-2.18 1.59-4.27 3.37-6.24 5.34l-14.5 14.49c-9.52 9.51-22.75 13.05-35.03 10.6l35.39-39.23c2.66-2.67 5.56-5.14 8.61-7.37 1-.73 2.02-1.44 3.06-2.11 1.06-.69 2.13-1.36 3.22-1.99 2.47 6.66 4.39 13.32 5.39 19.68.04.2.07.39.1.59z" fill="#d82f3c"/><path d="m354.12 80.071c-3.41 6.05-7.23 11.44-11.43 15.44-.19.19-.38.37-.58.55-8.21-6.39-17.9-10.02-27.79-10.87.07-.2.14-.39.21-.59 2.13-6.13 3.28-12.62 3.71-19.12.95.11 1.89.24 2.82.39 10.06 1.57 19.61 5.21 28.11 10.7 1.69 1.09 3.35 2.26 4.95 3.5z" fill="#d82f3c"/><path d="m377.49 163.741c-1.3 3.36-2.84 6.63-4.63 9.78-13.61 2.7-22.8 2.23-26.45 1.85l.59-.59c13.7-13.69 18.26-33.1 13.67-50.6 6.3-1.82 12.48-4.82 18.35-8.49.37 1.13.7 2.27 1 3.42.1.39.2.78.29 1.17 3.58 14.6 2.45 29.79-2.82 43.46z" fill="#d82f3c"/><path d="m332.46 217.571-5.81 5.81-.08.08-22.36 22.35-7.75 7.76c-9.72-6.59-16.16-12.13-16.16-12.13l32.21-32.2c2.56 1.37 9.67 4.94 19.95 8.33z" fill="#d82f3c"/></g><g><path d="m407.161 40.253c-25.172-25.156-58.679-39.439-94.347-40.219-35.579-.784-69.544 11.914-95.714 35.733-3.063 2.788-3.286 7.532-.498 10.596 2.789 3.063 7.532 3.285 10.596.498 5.269-4.796 10.843-9.048 16.652-12.763 7.471 10.163 23.361 34.416 25.36 59.12-.744.56-15.325 15.251-16.454 16.347-12.202 12.194-32.053 12.192-44.253 0-10.282-10.275-12.092-26.616-4.304-38.856 2.224-3.495 1.192-8.131-2.302-10.354-3.492-2.222-8.13-1.193-10.354 2.302-11.531 18.124-8.858 42.314 6.356 57.519 18.046 18.04 47.412 18.035 65.46 0l14.497-14.488c17.602-17.589 46.243-17.59 63.845 0 17.5 16.848 17.467 47.014 0 63.793l-152.363 152.27c-2.93 2.928-2.932 7.677-.003 10.606 4.193 4.305 10.016 1.608 13.132-2.521 10.591 8.22 34.926 25.403 58.469 30.006l-28.366 28.349c-19.509 1.807-47.002-15.533-61.734-26.743l4.276-4.273c2.93-2.928 2.932-7.677.003-10.606-2.929-2.931-7.678-2.932-10.606-.003l-86.51 86.454c-17.922 17.08-17.972 48.27 0 65.432 18.046 18.039 47.413 18.035 65.46 0l263.702-263.542c25.974-25.958 40.278-60.523 40.278-97.329.001-36.805-14.304-71.37-40.278-97.328zm25.248 99.822c-7.563 4.985-15.084 9.382-22.4 13.092-3.694 1.874-5.171 6.387-3.298 10.081 1.881 3.731 6.464 5.154 10.081 3.298 4.55-2.307 9.167-4.86 13.814-7.633-3.417 19.646-11.548 38.038-23.83 53.82-37.608 10.907-68.816.101-81.496-5.637l24.035-24.021c10.475.901 18.258.283 32.611-3.116 4.015-1.018 6.444-5.098 5.426-9.113-1.017-4.015-5.093-6.443-9.113-5.426-6.655 1.687-12.25 2.483-16.706 2.812 5.452-9.173 8.365-19.682 8.365-30.649 0-2.861-.207-5.689-.596-8.472 22.416-9.061 42.067-29.862 52.287-42.16 7.434 16.392 11.215 34.608 10.82 53.124zm-79.155 127.503c-19.508 1.803-47.002-15.534-61.734-26.742l22.521-22.507c6.507 5.46 49.718 18.395 75.248 13.237zm-42.318 42.293c-19.509 1.81-47.002-15.533-61.734-26.743l31.633-31.613c10.591 8.22 34.926 25.403 58.469 30.006zm102.941-237.292c-7.175 9.191-26.808 32.444-48.539 41.934-2.897-6.985-7.138-13.404-12.574-18.955 13.339-16.652 22.22-44.324 26.304-59.227 13.707 9.341 26.045 22.168 34.809 36.248zm-90.278 6.527c6.472-24.344.328-49.831-4.372-63.875 16.021 1.238 31.834 5.615 46.456 13.114-3.892 15.224-12.843 43.283-24.65 57.89-5.473-3.328-11.361-5.706-17.434-7.129zm-66.521-52.354c14.631-6.976 30.32-10.87 46.127-11.713 3.988 10.53 12.722 38.214 5.24 62.492-8.713.192-17.386 2.259-25.365 6.203-4.335-24.156-18.12-46.033-26.002-56.982zm-43.925 292.402 25.363-25.347c10.591 8.22 34.926 25.403 58.469 30.007l-22.097 22.084c-19.502 1.807-47.001-15.535-61.735-26.744zm5.465 82.978-22.089 22.076c-5.864.547-12.858-.589-20.84-3.401-3.905-1.374-8.189.676-9.565 4.583s.676 8.189 4.583 9.565c4.09 1.44 8.031 2.523 11.812 3.255l-28.314 28.297c-19.5 1.803-47-15.534-61.734-26.742l31.636-31.617c3.307 2.561 7.961 6.006 13.509 9.678 3.407 2.268 8.093 1.365 10.394-2.116 2.285-3.454 1.339-8.107-2.116-10.393-4.368-2.891-8.156-5.647-11.081-7.868l25.338-25.323c10.59 8.219 34.925 25.402 58.467 30.006zm-130.015 85.71c-9.586-9.282-11.919-24.808-5.658-36.504 11.135 8.515 34.593 24.67 57.307 29.112l-7.396 7.392c-12.202 12.194-32.053 12.192-44.253 0z"/></g></svg>